<svg xmlns="http://www.w3.org/2000/svg" viewBox="40 70 215 60"><path fill="#c8ff00" d="M 203.136719 92.96875 C 200.386719 92.550781 197.5625 92.59375 194.769531 92.558594 C 189.871094 92.496094 188.054688 91.335938 188.09375 88.128906 C 188.132812 84.925781 189.871094 83.816406 194.871094 83.8125 C 200.34375 83.8125 205.8125 83.8125 211.429688 83.8125 L 211.429688 74.460938 C 205.585938 74.460938 200.09375 74.585938 194.609375 74.425781 C 188.8125 74.253906 183.492188 75.125 179.285156 80.492188 L 179.285156 74.574219 L 178.375 74.574219 C 160.113281 74.558594 141.847656 74.347656 123.59375 74.648438 C 116.457031 74.765625 111.484375 80.261719 111 87.175781 C 110.714844 91.261719 112.558594 94.507812 115.296875 97.3125 C 114.003906 99.0625 112.777344 100.722656 111.398438 102.59375 C 108.5625 94.15625 101.996094 92.28125 94.210938 92.539062 C 93.011719 92.578125 91.808594 92.578125 90.609375 92.558594 C 86.953125 92.496094 85.03125 90.9375 85.082031 88.097656 C 85.128906 85.347656 86.921875 83.882812 90.460938 83.847656 C 95.386719 83.804688 108.65625 83.785156 108.65625 83.785156 L 108.65625 81.605469 C 108.65625 81.605469 108.699219 76.953125 108.699219 74.550781 C 101.003906 74.550781 93.792969 74.234375 86.625 74.652344 C 80.875 74.988281 76.800781 78.277344 74.816406 83.847656 C 74.566406 84.558594 74.335938 85.277344 73.933594 86.472656 C 72.402344 79.796875 68.78125 75.4375 62.460938 74.847656 C 55.851562 74.234375 49.140625 74.710938 42.261719 74.710938 L 42.261719 83.949219 C 47.265625 83.949219 52.140625 83.929688 57.015625 83.953125 C 60.746094 83.972656 62.914062 85.644531 62.914062 88.425781 C 62.914062 91.335938 60.875 92.960938 57.113281 92.984375 C 52.941406 93.011719 48.769531 92.992188 44.46875 92.992188 L 44.46875 102.03125 C 49.101562 102.03125 53.496094 101.941406 57.882812 102.0625 C 60.984375 102.144531 62.894531 104.117188 62.921875 106.894531 C 62.949219 109.667969 61.050781 111.46875 57.859375 111.628906 C 56.660156 111.691406 55.460938 111.648438 54.257812 111.648438 C 50.289062 111.648438 46.320312 111.648438 42.261719 111.648438 L 42.261719 121.148438 C 43.359375 121.148438 44.238281 121.152344 45.121094 121.148438 C 50.621094 121.117188 56.140625 121.382812 61.613281 120.984375 C 67.984375 120.523438 72.835938 115.554688 73.828125 109.21875 C 74.574219 104.472656 72.617188 100.699219 69.667969 97.703125 C 73.117188 93.914062 73.015625 92.316406 73.980469 90.0625 C 76.664062 99.300781 80.472656 102.164062 90.480469 102.246094 C 92.378906 102.261719 94.289062 102.164062 96.175781 102.328125 C 99.058594 102.582031 100.773438 104.589844 100.664062 107.316406 C 100.558594 109.847656 98.75 111.71875 95.988281 111.824219 C 92.894531 111.949219 89.789062 111.851562 86.691406 111.851562 C 83.21875 111.851562 79.75 111.851562 76.210938 111.851562 L 76.210938 121.148438 C 82.667969 121.148438 88.945312 120.992188 95.214844 121.1875 C 102.636719 121.421875 108.207031 118.863281 111.105469 111.179688 C 114.339844 119.21875 120.40625 121.59375 128.125 121.175781 C 131.414062 121 134.722656 121.148438 138.023438 121.148438 L 144.144531 121.148438 L 144.144531 111.765625 C 142.882812 111.765625 141.804688 111.769531 140.730469 111.765625 C 136.027344 111.753906 131.328125 111.824219 126.628906 111.699219 C 123.722656 111.617188 121.917969 109.914062 121.808594 107.367188 C 121.691406 104.695312 123.070312 103.011719 125.613281 102.359375 C 126.5625 102.117188 127.585938 102.101562 128.578125 102.09375 C 132.949219 102.066406 137.320312 102.082031 141.855469 102.082031 L 141.855469 92.910156 C 136.980469 92.910156 132.296875 93.0625 127.636719 92.828125 C 125.980469 92.742188 123.96875 92.105469 122.878906 90.980469 C 122.023438 90.09375 121.652344 87.628906 122.285156 86.675781 C 123.175781 85.332031 125.179688 83.996094 126.738281 83.953125 C 135.734375 83.707031 144.738281 83.835938 153.738281 83.859375 C 154.199219 83.859375 154.660156 83.777344 155.300781 83.925781 C 155.300781 91.421875 155.195312 99.097656 155.324219 106.484375 C 155.5 116.664062 163.566406 122.90625 173.648438 120.738281 L 173.648438 112.09375 C 172.902344 112 172.328125 111.886719 171.746094 111.859375 C 167.414062 111.660156 166.503906 110.734375 166.492188 106.460938 C 166.480469 103.558594 166.484375 88.628906 166.484375 84.023438 L 177.394531 84.023438 C 177.316406 85.222656 177.257812 86.195312 177.195312 87.171875 C 176.664062 95.707031 181.457031 101.328125 190.019531 102.082031 C 192.207031 102.277344 194.414062 102.226562 196.613281 102.257812 C 201.414062 102.320312 203.789062 103.953125 203.707031 107.171875 C 203.625 110.390625 201.25 111.894531 196.390625 111.871094 C 190.707031 111.847656 185.019531 111.867188 179.292969 111.867188 L 179.292969 121.082031 C 187.003906 121.082031 194.503906 121.355469 201.972656 121 C 209.171875 120.660156 214.21875 114.835938 214.511719 107.355469 C 214.820312 99.460938 210.691406 94.109375 203.136719 92.96875"/></svg>